<svg width="107" height="29" viewBox="0 0 107 29" fill="none" xmlns="http://www.w3.org/2000/svg">
<g clip-path="url(#clip0_3_534)">
<path d="M5.72533 20.5447C5.71877 20.4958 5.70565 20.4478 5.6868 20.4023C5.55481 20.0861 5.15065 19.9032 4.72517 19.9677C4.47596 20.0058 4.25379 20.12 4.10049 20.2897C3.95621 20.4487 3.89062 20.6382 3.91522 20.822V20.8236C3.92177 20.8725 3.93489 20.9196 3.95375 20.9643C4.08573 21.2814 4.49071 21.4635 4.91455 21.3989C5.41462 21.3228 5.77779 20.9395 5.72451 20.5438L5.72533 20.5447Z" fill="white"/>
<path d="M6.84008 21.2575C6.83352 21.2086 6.8204 21.1606 6.80155 21.1151C6.68596 20.8386 6.36214 20.664 5.99815 20.6673C5.97274 21.1209 5.58907 21.5257 5.0603 21.6473C5.06358 21.6573 5.0644 21.6672 5.0685 21.6771C5.19967 21.9933 5.60547 22.1763 6.03012 22.1117C6.5302 22.0356 6.89337 21.6523 6.84008 21.2566V21.2575Z" fill="white"/>
<path d="M7.41171 20.1997C7.40515 20.1509 7.39204 20.1029 7.37318 20.0573C7.24201 19.7411 6.83621 19.5582 6.41156 19.6228C6.16234 19.6608 5.941 19.7751 5.78688 19.9448C5.76966 19.9646 5.75654 19.9853 5.74097 20.006C5.82541 20.0896 5.89345 20.1865 5.93854 20.2957C5.95165 20.3272 5.95657 20.3619 5.96559 20.3951C6.40664 20.3826 6.81162 20.5821 7.00181 20.9107C7.27808 20.7468 7.44942 20.4778 7.41171 20.1997Z" fill="white"/>
<path d="M18.8503 10.0728C18.4289 9.69948 17.8223 9.70776 17.4739 9.8162C17.7018 9.53311 18.233 9.30134 18.3896 9.27319C18.5085 9.31789 18.8503 9.673 18.8503 10.072V10.0728Z" fill="white"/>
<path d="M20.1972 8.52672C19.9201 7.02849 16.4712 8.02096 14.7349 7.38525C14.7013 7.82231 15.2694 8.52175 15.8129 8.78084C14.8841 9.59452 14.0504 11.2335 13.8823 13.2366C13.7143 11.2335 12.8814 9.59452 11.9525 8.78084C12.496 8.52175 13.0642 7.82231 13.0306 7.38525C11.2942 8.02179 7.84534 7.02932 7.56743 8.52672C7.50923 8.84375 7.66007 9.32715 7.82321 9.46621C7.85272 9.36606 8.0052 9.03744 8.48561 8.96294C10.9147 8.59211 12.9437 12.3733 11.1122 13.9013C11.0844 13.9245 11.0999 13.9675 11.1376 13.9675H16.627C16.6647 13.9675 16.6803 13.9245 16.6524 13.9013C14.821 12.3724 16.8492 8.59211 19.279 8.96294C19.7603 9.03661 19.9119 9.36523 19.9414 9.46539C20.1046 9.32632 20.2554 8.84375 20.1972 8.52589V8.52672Z" fill="white"/>
<path d="M20.7874 5.08826C20.744 4.94671 22.168 4.9434 22.168 5.84317C22.168 6.4466 21.3162 6.73217 21.3162 7.35878C21.3162 7.65014 21.6269 7.86453 21.722 7.86453C21.5023 6.85964 22.4098 7.38526 22.6549 7.57316C22.168 6.22145 23.264 6.22973 23.1566 5.60974C23.0812 5.17683 22.1286 5.30761 21.7835 5.08826C21.1719 4.69922 20.448 3.18609 19.9709 4.69922C20.8604 5.53276 20.3431 6.76031 19.2134 6.76031C19.2134 6.76031 19.2069 6.93993 19.2175 6.95483C20.5644 6.88861 21.0334 5.88869 20.7874 5.08826Z" fill="white"/>
<path d="M5.07583 7.57316C5.32095 7.38526 6.22846 6.85881 6.00957 7.86453C6.10467 7.86453 6.41537 7.65097 6.41537 7.35878C6.41537 6.733 5.56361 6.4466 5.56361 5.84317C5.56361 4.94258 6.98841 4.94671 6.94414 5.08826C6.6982 5.88869 7.16795 6.88779 8.51405 6.95483C8.52389 6.94076 8.51733 6.76031 8.51733 6.76031C7.38847 6.76031 6.87118 5.53276 7.75984 4.69922C7.28272 3.18609 6.55884 4.69922 5.94727 5.08826C5.60214 5.30761 4.64953 5.17683 4.57411 5.60974C4.46672 6.22973 5.56197 6.22145 5.07501 7.57316H5.07583Z" fill="white"/>
<path d="M8.90039 10.0728C9.32259 9.69948 9.92923 9.70776 10.2768 9.8162C10.0497 9.53311 9.5177 9.30134 9.36194 9.27319C9.24307 9.31789 8.90039 9.673 8.90039 10.072V10.0728Z" fill="white"/>
<path d="M14.5225 1.69201L13.8659 0.883301L13.2092 1.69201L13.8659 2.54294L14.5234 1.69201H14.5225Z" fill="white"/>
<path d="M18.2729 4.1372L17.8056 3.56274L17.3391 4.1372L17.8056 4.69924L18.2729 4.1372Z" fill="white"/>
<path d="M10.3932 4.1372L9.92594 3.56274L9.45947 4.1372L9.92594 4.69924L10.3932 4.1372Z" fill="white"/>
<path d="M9.0554 6.95402H10.7975C12.2624 6.95402 12.9216 6.04598 13.1208 5.25879H14.6112C14.8104 6.04598 15.4687 6.95402 16.9345 6.95402H18.6765C18.6765 6.95402 18.9815 6.53684 19.0577 6.3299C19.3332 5.58576 18.9815 5.23893 18.4683 5.23893L17.8051 5.84567L17.1419 5.23893C16.6287 5.23893 16.277 5.58576 16.5524 6.3299C16.5877 6.42509 16.6713 6.56498 16.7508 6.68749C16.1327 6.6014 15.3432 6.17428 15.1703 5.25879C15.1703 5.25879 15.6269 4.52624 15.7417 4.2299C16.1532 3.16376 15.6277 2.72754 14.8579 2.72754L13.8643 3.90625L12.8707 2.72754C12.1018 2.72754 11.5755 3.16376 11.9878 4.2299C12.1018 4.52624 12.5592 5.25962 12.5592 5.25962C12.3854 6.17511 11.5968 6.60223 10.9786 6.68832C11.059 6.56581 11.1426 6.42592 11.177 6.33073C11.4517 5.58658 11.1008 5.23976 10.5876 5.23976L9.92438 5.8465L9.26117 5.23976C8.74798 5.23976 8.3971 5.58658 8.67174 6.33073C8.74798 6.53767 9.05376 6.95485 9.05376 6.95485L9.0554 6.95402Z" fill="white"/>
<path d="M27.0695 12.4082C26.7334 12.5804 24.7602 13.5133 22.2327 13.1681C22.259 13.0464 22.2811 12.9239 22.2991 12.8006C23.9814 12.5978 25.3488 12.3097 26.2202 11.8197C27.2138 11.2618 27.6475 9.92912 27.1466 8.93748C27.1335 8.91264 27.0974 8.90768 27.0794 8.9292C26.8047 9.24871 25.0774 11.1459 22.3557 11.7361C22.3491 11.5937 22.336 11.4522 22.3172 11.3106C23.6387 10.5541 24.9299 9.68162 25.5439 8.88367C26.4727 7.67764 26.3875 6.13968 25.5037 5.35581C25.4947 5.34753 25.4824 5.34422 25.4701 5.34587C25.4578 5.34753 25.4471 5.35415 25.4406 5.36491C25.161 5.83093 22.5434 10.1029 19.6692 11.9472C19.634 11.9695 19.5987 11.9919 19.5635 12.0134C19.4815 12.0639 19.4725 12.1723 19.5422 12.2361C19.8734 12.539 20.0791 12.9612 20.0791 13.4297C20.0791 14.2442 19.4569 14.9213 18.6355 15.0686C18.2174 15.1506 17.6148 15.1266 17.0352 14.9337C17.009 14.9254 16.9819 14.9428 16.9819 14.9693V17.5494C16.9819 17.5908 17.0442 17.6015 17.059 17.561C17.4107 16.619 18.4649 16.4195 18.9257 16.4195C19.0913 17.426 19.388 18.2596 19.7725 18.7082C20.3988 19.4375 21.4228 19.4275 21.8663 18.9226C21.8737 18.9143 21.8769 18.9027 21.8745 18.892C21.8728 18.8812 21.8655 18.8713 21.8556 18.8663C21.5949 18.7148 20.1029 17.7902 19.8045 16.2746C19.9225 16.2333 20.0373 16.1869 20.148 16.1323C20.6292 16.9368 21.3301 17.6537 21.895 17.9277C22.8427 18.3871 23.7108 18.1636 24.0953 17.4914C24.1092 17.4674 24.092 17.4385 24.0642 17.436C23.478 17.3888 21.6785 16.8681 20.912 15.5992C20.9998 15.5181 21.0858 15.4328 21.1654 15.3426C21.9671 15.9584 23.1009 16.5039 23.9125 16.6148C24.8618 16.7456 25.9382 16.4394 25.9644 15.3244C25.9644 15.302 25.9448 15.2838 25.9218 15.2855C25.5841 15.3062 23.3493 15.4038 21.7564 14.4809C21.8114 14.375 21.863 14.2665 21.9114 14.1564C21.9114 14.1564 24.3183 14.7309 25.4578 14.5405C26.5908 14.3518 27.2548 13.4984 27.1261 12.438C27.1228 12.4115 27.0917 12.3958 27.0679 12.4082H27.0695Z" fill="white"/>
<path d="M5.81948 14.1563C5.86703 14.2663 5.9195 14.374 5.97442 14.4807C4.38238 15.4037 2.14762 15.306 1.80904 15.2853C1.78527 15.2836 1.76559 15.3027 1.76559 15.325C1.79183 16.44 2.8674 16.7455 3.81754 16.6155C4.62914 16.5046 5.76292 15.9591 6.56468 15.3432C6.64502 15.4335 6.73028 15.5179 6.81799 15.5998C6.05149 16.8688 4.25203 17.3894 3.66588 17.4366C3.63719 17.4391 3.62079 17.4689 3.63473 17.4921C4.02003 18.1642 4.88737 18.3877 5.83588 17.9283C6.3999 17.6543 7.10082 16.9375 7.58204 16.1329C7.69272 16.1875 7.80749 16.2339 7.92472 16.2753C7.62631 17.7909 6.13428 18.7155 5.87359 18.867C5.86375 18.8719 5.85719 18.8819 5.85555 18.8926C5.85391 18.9034 5.85637 18.915 5.86375 18.9233C6.30726 19.4274 7.33119 19.4373 7.95833 18.7089C8.34364 18.2602 8.63876 17.4267 8.80518 16.4201C9.26672 16.4201 10.3202 16.6205 10.6719 17.5616C10.6874 17.6013 10.7497 17.5914 10.7497 17.5492V14.9691C10.7497 14.9426 10.7227 14.9252 10.6964 14.9335C10.1177 15.1272 9.5143 15.1504 9.09703 15.0684C8.27477 14.9219 7.65255 14.244 7.65255 13.4295C7.65255 12.961 7.85914 12.5388 8.18951 12.235C8.26002 12.1713 8.251 12.0629 8.16902 12.0124C8.13295 11.9909 8.0977 11.9685 8.06162 11.9462C5.18988 10.1036 2.57391 5.83407 2.2919 5.36556C2.27878 5.34404 2.24763 5.33907 2.22796 5.35646C1.34504 6.14116 1.25978 7.67829 2.18861 8.88349C2.80345 9.68062 4.09381 10.5531 5.41532 11.3105C5.39647 11.452 5.38417 11.5935 5.37679 11.7359C2.65753 11.1457 0.93104 9.25184 0.653949 8.92985C0.635914 8.90833 0.598203 8.91247 0.585906 8.9373C0.0858309 9.92894 0.519503 11.2608 1.51228 11.8187C2.38372 12.3079 3.75114 12.5959 5.43336 12.7996C5.45139 12.9229 5.47353 13.0454 5.49976 13.1671C2.97479 13.5123 1.00318 12.581 0.663787 12.4072C0.638373 12.394 0.608041 12.4105 0.604762 12.437C0.476873 13.4982 1.14009 14.3499 2.27305 14.5387C3.41256 14.7291 5.81948 14.1546 5.81948 14.1546V14.1563Z" fill="white"/>
<path d="M15.0071 17.6312C15.3194 17.5145 15.8097 17.6089 15.7924 18.0641C15.7883 18.1676 15.9318 18.1676 15.9425 18.0616C16.0359 17.3796 15.5793 17.1834 15.1022 17.2629C15.0432 17.0286 14.994 16.8233 14.939 16.6205C14.8948 16.4566 14.8784 16.1479 15.0669 16.1479C15.1686 16.1479 15.1276 16.4351 15.1186 16.5584C15.1104 16.6669 15.1489 16.7323 15.2358 16.7356C15.2899 16.7381 15.358 16.6677 15.3989 16.6213C15.6728 16.3093 15.7359 15.8259 15.4153 15.5933C15.1473 15.3979 14.4767 15.5436 14.2922 15.8217C14.2643 15.7166 14.1315 15.5436 14.0676 15.4683C14.0053 15.3946 13.9897 15.3441 14.075 15.2796C14.1151 15.2481 14.2381 15.1256 14.2381 14.999C14.2381 14.9236 14.1807 14.7854 13.9979 14.7854C13.8536 14.7854 13.6929 14.8864 13.6929 15.1115C13.6929 15.1612 13.7052 15.215 13.7372 15.2729C13.6462 15.258 13.3978 15.2638 13.2708 15.2953L15.03 20.1707C15.5334 19.9199 15.9031 19.5226 15.9031 19.0955C15.9031 18.7321 15.3727 18.8521 15.1153 19.136C15.0325 18.675 14.9587 18.2495 14.8784 17.8257C14.8562 17.709 14.9153 17.6668 15.0087 17.6312H15.0071Z" fill="white"/>
<path d="M12.6845 14.2606C12.6402 14.1464 12.4804 14.201 12.5197 14.3194L12.8894 15.3565C12.573 15.4327 12.0639 15.6653 12.0639 15.974C12.0639 16.3846 12.7837 16.6528 13.2001 16.6205C13.1796 16.714 13.2034 16.7976 13.2682 16.8738C13.1173 16.8738 12.8321 16.945 12.7386 17.0468C12.5181 16.839 12.1721 16.7637 12.0082 16.8904C11.8434 17.0178 11.8385 17.233 12.0106 17.4772C12.1303 17.6461 12.1754 17.8125 12.0409 18.0078C12.5427 18.0078 12.3582 17.3489 12.5541 17.3489C12.5287 17.4764 12.5443 17.6246 12.6017 17.7885C12.6394 17.8977 12.6394 17.9747 12.5746 18.0798C12.4131 18.3414 12.1606 18.9415 12.1951 19.4837C12.0303 19.4829 11.9467 19.4423 12.0049 19.2155C12.0262 19.1311 11.9745 19.0706 11.9065 19.1749C11.8311 19.29 11.7942 19.4853 11.7942 19.5698C11.7942 20.0532 12.3639 20.15 12.582 20.0482C13.2116 20.6632 14.4479 20.4993 14.8619 20.2932L12.6845 14.2614V14.2606ZM12.4435 19.2883C12.3984 19.04 12.7411 18.5963 13.1755 18.1676C13.0829 18.4465 13.1403 18.9274 13.3223 19.093C13.0067 19.093 12.6312 19.1526 12.4435 19.2875V19.2883Z" fill="white"/>
<path d="M4.77597 23.1961C4.9801 23.2391 5.19652 23.2623 5.42033 23.2623C6.43605 23.2623 7.29848 22.7896 7.58623 22.1407C7.51818 21.8477 7.47392 21.5464 7.46326 21.2368C7.46326 21.2343 7.46244 21.2327 7.46162 21.2302C7.46326 21.1871 7.44604 21.0439 7.42391 20.9148C7.33291 21.015 7.22388 21.1043 7.09763 21.1731C7.10091 21.1888 7.10747 21.2029 7.10993 21.2186C7.18371 21.7632 6.71724 22.2855 6.07042 22.384C6.00074 22.3948 5.93106 22.3998 5.86302 22.3998C5.39491 22.3998 4.97354 22.1597 4.81696 21.7831C4.80384 21.7516 4.7981 21.7177 4.78908 21.6846C4.77597 21.6846 4.76203 21.6879 4.74891 21.6879C4.55872 21.6879 4.37837 21.6465 4.21851 21.5745C4.27507 21.9677 4.36607 22.3501 4.51609 22.7011C4.58987 22.8732 4.67759 23.038 4.77679 23.1952L4.77597 23.1961Z" fill="white"/>
<path d="M8.25849 23.696C8.04862 24.2879 7.36 24.7374 6.51807 24.8052C7.34606 25.2878 8.19291 25.5295 8.65363 25.5055C8.63888 25.3631 8.85203 24.7498 9.03566 24.566C8.73725 24.316 8.4782 24.0222 8.25849 23.696Z" fill="white"/>
<path d="M22.8515 20.8998C22.5785 20.7558 22.2416 20.8625 22.0981 21.1382C22.0284 21.2723 21.8825 21.3352 21.7423 21.3095L22.0661 20.6838C22.2629 20.6862 22.4547 20.5819 22.5515 20.394C22.6892 20.1275 22.5875 19.7981 22.3235 19.6582C22.0596 19.5191 21.7333 19.6218 21.5956 19.8883C21.498 20.0762 21.5226 20.2947 21.6366 20.4569L21.3127 21.0827C21.2119 20.9809 21.1791 20.8245 21.2488 20.6904C21.3914 20.4147 21.2857 20.0745 21.0127 19.9297L19.2321 18.9894L19.1805 19.0895C19.0567 19.3304 19.1198 19.6259 19.3313 19.7931C19.2633 20.0158 19.3387 20.2575 19.5198 20.4015C19.4403 20.6606 19.5559 20.9404 19.7937 21.067L20.1076 21.2325C20.0978 21.235 20.0871 21.2342 20.0781 21.2367C19.9404 21.2772 19.8371 21.36 19.7732 21.4842C19.6371 21.7466 19.8387 22.0189 20.1363 22.321C20.0486 22.326 19.9658 22.3401 19.8863 22.3641L19.8847 22.3599C19.3575 22.4344 17.9196 22.1124 18.059 21.8981C19.6346 19.6598 18.4295 18.3272 16.9809 18.4016V19.9048C16.9809 20.3874 16.5637 20.7789 16.0497 20.7789H15.0495C14.3322 20.7789 13.8649 21.5074 13.8649 21.5074C13.8649 21.5074 13.3976 20.7789 12.6803 20.7789H11.6801C11.1661 20.7789 10.7497 20.3874 10.7497 19.9048V18.4016C9.30109 18.3272 8.09435 19.6598 9.67082 21.8981C9.80199 22.0984 8.48457 22.4129 7.75577 22.3724C7.37621 23.0461 6.47279 23.5221 5.42018 23.5221C5.27179 23.5221 5.12587 23.5122 4.98486 23.494C5.30212 23.9062 5.69645 24.2571 6.11372 24.5469C6.17357 24.551 6.23505 24.5535 6.29654 24.5535C7.2434 24.5535 8.01647 24.0312 8.06238 23.3772C8.04106 23.3392 8.01893 23.3011 7.99843 23.2614C8.60262 22.9005 9.58228 22.6521 10.4111 22.6521C10.5693 22.6521 10.6431 22.5172 10.589 22.3848C10.1824 21.3964 11.0571 20.6804 11.9621 21.2632C12.3573 21.5173 12.7582 22.0181 13.0599 22.8533C11.5744 23.2167 9.71017 24.2166 9.33306 25.3084C9.18796 25.7297 9.66754 26.305 10.2504 26.4201C10.2611 26.4225 10.2717 26.4201 10.2807 26.4143C10.2898 26.4085 10.2955 26.3994 10.298 26.3886C10.6021 24.7588 12.3384 23.5436 13.2418 23.3375C13.2869 23.46 13.2722 23.4203 13.3181 23.5428C12.3343 24.013 11.3801 25.0038 11.1079 26.1817C10.9833 26.7214 11.5785 27.2072 12.0704 27.3405C12.095 27.3471 12.1195 27.3297 12.1204 27.3057C12.2138 25.8158 12.8656 24.551 13.4493 23.9757C13.4657 24.0883 13.4771 24.2009 13.4853 24.3143C13.4853 24.3143 12.8877 25.9954 12.8877 27.2221C12.8877 27.7925 13.728 28.1914 13.8518 28.2469C14.0067 28.1914 14.8462 27.7925 14.8462 27.2221C14.8462 25.9954 14.2486 24.3143 14.2486 24.3143C14.2568 24.2009 14.2691 24.0875 14.2846 23.9757C14.8675 24.551 15.5201 25.8158 15.6127 27.3057C15.6143 27.3297 15.6389 27.348 15.6627 27.3413C16.1554 27.2081 16.7506 26.7222 16.626 26.1825C16.353 25.0046 15.3996 24.0138 14.4158 23.5436C14.4609 23.4211 14.4461 23.4608 14.4912 23.3383C15.3955 23.5445 17.131 24.7596 17.4351 26.3894C17.4376 26.4002 17.4433 26.4093 17.4523 26.4151C17.4613 26.4209 17.472 26.4225 17.4827 26.4209C18.0647 26.305 18.5459 25.7305 18.3992 25.3092C18.0229 24.2174 16.1579 23.2175 14.6724 22.8541C14.9749 22.0189 15.3758 21.5181 15.7709 21.264C16.676 20.6813 17.5507 21.3973 17.1441 22.3856C17.09 22.518 17.1638 22.653 17.322 22.653C17.9811 22.653 18.7386 22.8094 19.3256 23.0553C19.3157 23.3524 19.4739 23.6686 19.7535 23.9087L19.7584 23.9169C19.5116 23.9666 19.2846 24.0618 19.1337 24.272C18.9419 24.5386 18.9157 24.9392 19.0517 25.4913L18.7583 26.3124C18.7435 26.3621 18.7656 26.4159 18.8115 26.4407C18.8575 26.4648 18.914 26.4532 18.946 26.4118L19.4469 25.6991C19.9724 25.4963 20.2839 25.2471 20.3913 24.9359C20.4757 24.6917 20.4241 24.4484 20.3232 24.2158C20.8151 24.3565 21.3037 24.2191 21.4964 23.8474C21.6316 23.5867 21.5874 23.2713 21.4152 22.9923C21.8251 23.0652 22.158 23.0751 22.294 22.8144C22.358 22.691 22.367 22.5586 22.3219 22.4204C22.3186 22.4113 22.3121 22.4022 22.3088 22.3931L22.6236 22.5594C22.8622 22.6844 23.1548 22.6207 23.3212 22.4071C23.5418 22.4758 23.7811 22.3997 23.9238 22.2167C24.1804 22.297 24.4575 22.1803 24.5829 21.9403L24.6346 21.8401L22.854 20.8998H22.8515ZM19.2829 25.0336C19.2764 24.8399 19.3452 24.5824 19.4182 24.4806C19.4707 24.4078 19.569 24.354 19.6592 24.3167L19.2829 25.0336ZM20.0576 24.8184C20.0166 24.9376 19.8404 25.1404 19.6781 25.2455L20.0642 24.5096C20.0847 24.6031 20.0871 24.7356 20.0576 24.8184ZM20.6618 22.3401C20.6454 22.3244 20.629 22.3078 20.6126 22.2921C20.4413 22.1265 20.0388 21.7391 20.0863 21.6489C20.1052 21.6125 20.1322 21.5918 20.1765 21.5785C20.3675 21.5223 20.7167 21.6522 20.9569 21.7706L20.6618 22.3401ZM21.9801 22.6497C21.9333 22.7399 21.3882 22.6281 21.1562 22.5801C21.1348 22.576 21.1127 22.571 21.0914 22.5669L21.3857 21.9982C21.6177 22.1298 21.9218 22.345 21.985 22.5354C21.9997 22.5801 21.9981 22.6141 21.9792 22.6505L21.9801 22.6497Z" fill="white"/>
<path d="M34.0254 12.4657L34.0221 10.773L33.1908 12.1835H33.04L32.2087 10.7829V12.4657H31.8931V10.1431H32.1628L33.1228 11.7754L34.0696 10.1431H34.3393L34.3426 12.4657H34.027H34.0254Z" fill="white"/>
<path d="M35.0051 10.707H35.3207V11.9876L36.3889 10.707H36.6751V12.466H36.3594V11.1855L35.2945 12.466H35.0051V10.707Z" fill="white"/>
<path d="M37.2856 10.707H37.6013V11.4537H38.594V10.707H38.9097V12.466H38.594V11.7293H37.6013V12.466H37.2856V10.707Z" fill="white"/>
<path d="M39.5239 10.707H39.8395V11.9876L40.9077 10.707H41.1939V12.466H40.8782V11.1855L39.8133 12.466H39.5239V10.707Z" fill="white"/>
<path d="M42.0889 12.3698C41.9496 12.292 41.8406 12.1852 41.7618 12.0495C41.6831 11.9137 41.6438 11.759 41.6438 11.5868C41.6438 11.4146 41.6831 11.2598 41.7618 11.1241C41.8406 10.9883 41.9496 10.8815 42.0889 10.8054C42.2283 10.7292 42.3865 10.6912 42.5636 10.6912C42.721 10.6912 42.862 10.7234 42.9858 10.7872C43.1096 10.8517 43.2055 10.9445 43.2736 11.0661L43.0334 11.2217C42.9784 11.1381 42.9104 11.0744 42.8292 11.0322C42.7481 10.99 42.6587 10.9693 42.5595 10.9693C42.4456 10.9693 42.3431 10.9949 42.2521 11.0454C42.1611 11.0968 42.0898 11.1688 42.0381 11.2631C41.9865 11.3575 41.9611 11.4651 41.9611 11.5868C41.9611 11.7085 41.9865 11.8194 42.0381 11.9137C42.0898 12.0081 42.1611 12.0801 42.2521 12.1314C42.3431 12.1828 42.4456 12.2076 42.5595 12.2076C42.6579 12.2076 42.7481 12.1869 42.8292 12.1447C42.9104 12.1025 42.9784 12.0396 43.0334 11.9551L43.2736 12.1074C43.2055 12.2291 43.1096 12.3227 42.9858 12.388C42.862 12.4534 42.721 12.4857 42.5636 12.4857C42.3865 12.4857 42.2275 12.4468 42.0889 12.3698Z" fill="white"/>
<path d="M44.9567 10.986H44.3189V12.466H44.0033V10.986H43.3655V10.707H44.9559V10.986H44.9567Z" fill="white"/>
<path d="M46.7707 11.6927H45.3574C45.377 11.8475 45.4443 11.9725 45.5599 12.0661C45.6746 12.1604 45.8181 12.2068 45.9886 12.2068C46.1968 12.2068 46.3641 12.1364 46.4911 11.9949L46.6649 12.2001C46.5862 12.2929 46.4879 12.364 46.3706 12.4129C46.2534 12.4617 46.1222 12.4857 45.978 12.4857C45.7935 12.4857 45.6304 12.4476 45.4885 12.3715C45.3459 12.2953 45.236 12.1886 45.1582 12.0512C45.0803 11.9137 45.0417 11.759 45.0417 11.5868C45.0417 11.4146 45.0795 11.2623 45.1549 11.1257C45.2303 10.9883 45.3344 10.8815 45.4672 10.8054C45.6 10.7292 45.7492 10.6912 45.9156 10.6912C46.0821 10.6912 46.2304 10.7292 46.3608 10.8054C46.4911 10.8815 46.5928 10.9883 46.6666 11.1257C46.7395 11.2631 46.7764 11.4204 46.7764 11.5967C46.7764 11.6207 46.774 11.653 46.7699 11.6927H46.7707ZM45.5369 11.0992C45.4352 11.192 45.3754 11.3136 45.3582 11.4643H46.4756C46.4584 11.3161 46.3985 11.1953 46.2969 11.1009C46.1952 11.0065 46.0681 10.9594 45.9173 10.9594C45.7664 10.9594 45.6394 11.0057 45.5377 11.0992H45.5369Z" fill="white"/>
<path d="M48.6441 10.8031C48.7777 10.8784 48.8827 10.9835 48.9581 11.1185C49.0335 11.2534 49.0712 11.4098 49.0712 11.5861C49.0712 11.7625 49.0335 11.9197 48.9581 12.0555C48.8827 12.1912 48.7777 12.2972 48.6441 12.3725C48.5105 12.4478 48.3596 12.4851 48.1908 12.4851C48.0661 12.4851 47.9514 12.4611 47.8473 12.4122C47.7431 12.3634 47.6546 12.293 47.5825 12.1995V13.1084H47.2668V10.7063H47.5694V10.9852C47.6399 10.8875 47.7284 10.8147 47.8358 10.7642C47.9432 10.7145 48.0612 10.6897 48.1908 10.6897C48.3596 10.6897 48.5105 10.7269 48.6441 10.8023V10.8031ZM48.4654 12.1292C48.5539 12.077 48.6244 12.0042 48.6761 11.9098C48.7277 11.8154 48.7531 11.7078 48.7531 11.5861C48.7531 11.4645 48.7277 11.3569 48.6761 11.2625C48.6244 11.1681 48.5547 11.0961 48.4654 11.0448C48.3769 10.9935 48.276 10.9686 48.1645 10.9686C48.053 10.9686 47.9555 10.9943 47.8669 11.0465C47.7784 11.0986 47.7079 11.1706 47.6562 11.2642C47.6046 11.3569 47.5792 11.4645 47.5792 11.5861C47.5792 11.7078 47.6046 11.8154 47.6546 11.9098C47.7046 12.0042 47.7751 12.077 47.8653 12.1292C47.9547 12.1813 48.0547 12.207 48.1645 12.207C48.2744 12.207 48.3769 12.1813 48.4654 12.1292Z" fill="white"/>
<path d="M49.8123 12.3698C49.673 12.292 49.5639 12.1852 49.4852 12.0495C49.4065 11.9137 49.3672 11.759 49.3672 11.5868C49.3672 11.4146 49.4065 11.2598 49.4852 11.1241C49.5639 10.9883 49.673 10.8815 49.8123 10.8054C49.9517 10.7292 50.1099 10.6912 50.287 10.6912C50.4444 10.6912 50.5854 10.7234 50.7092 10.7872C50.833 10.8517 50.9289 10.9445 50.9969 11.0661L50.7567 11.2217C50.7018 11.1381 50.6338 11.0744 50.5526 11.0322C50.4714 10.99 50.3821 10.9693 50.2829 10.9693C50.1689 10.9693 50.0665 10.9949 49.9755 11.0454C49.8845 11.0968 49.8132 11.1688 49.7615 11.2631C49.7099 11.3575 49.6844 11.4651 49.6844 11.5868C49.6844 11.7085 49.7099 11.8194 49.7615 11.9137C49.8132 12.0081 49.8845 12.0801 49.9755 12.1314C50.0665 12.1828 50.1689 12.2076 50.2829 12.2076C50.3813 12.2076 50.4714 12.1869 50.5526 12.1447C50.6338 12.1025 50.7018 12.0396 50.7567 11.9551L50.9969 12.1074C50.9289 12.2291 50.833 12.3227 50.7092 12.388C50.5854 12.4534 50.4444 12.4857 50.287 12.4857C50.1099 12.4857 49.9509 12.4468 49.8123 12.3698Z" fill="white"/>
<path d="M52.6798 10.986H52.042V12.466H51.7264V10.986H51.0886V10.707H52.679V10.986H52.6798Z" fill="white"/>
<path d="M54.5269 11.9818C54.5269 12.1366 54.4695 12.2557 54.3548 12.3402C54.24 12.4238 54.0687 12.466 53.8408 12.466H53.0029V10.707H53.8112C54.017 10.707 54.1785 10.7459 54.2941 10.8246C54.4105 10.9032 54.4679 11.0141 54.4679 11.1582C54.4679 11.2509 54.4433 11.3312 54.3941 11.399C54.3449 11.4669 54.2761 11.5182 54.1884 11.553C54.4138 11.6109 54.5269 11.7533 54.5269 11.9809V11.9818ZM53.3112 11.4644H53.7842C53.9047 11.4644 53.9957 11.4421 54.0588 11.3982C54.122 11.3543 54.1523 11.2898 54.1523 11.2053C54.1523 11.0373 54.0293 10.9529 53.7842 10.9529H53.3112V11.4644ZM54.1129 12.1581C54.1785 12.1159 54.2113 12.0505 54.2113 11.9619C54.2113 11.8733 54.181 11.8038 54.1211 11.7591C54.0605 11.7152 53.9662 11.6929 53.8367 11.6929H53.3112V12.2202H53.817C53.9482 12.2202 54.0473 12.1995 54.1129 12.1572V12.1581Z" fill="white"/>
<path d="M55.2998 12.3698C55.1621 12.292 55.0539 12.1852 54.976 12.0495C54.8981 11.9137 54.8596 11.759 54.8596 11.5868C54.8596 11.4146 54.8981 11.2598 54.976 11.1241C55.0539 10.9883 55.1621 10.8815 55.2998 10.8054C55.4376 10.7292 55.5933 10.6912 55.7663 10.6912C55.9393 10.6912 56.0942 10.7292 56.2311 10.8054C56.368 10.8815 56.4754 10.9875 56.5533 11.1241C56.6312 11.2598 56.6697 11.4146 56.6697 11.5868C56.6697 11.759 56.6312 11.9137 56.5533 12.0495C56.4754 12.1852 56.368 12.292 56.2311 12.3698C56.0942 12.4468 55.9393 12.4857 55.7663 12.4857C55.5933 12.4857 55.4376 12.4468 55.2998 12.3698ZM56.0672 12.129C56.1557 12.0768 56.2254 12.004 56.2754 11.9096C56.3262 11.8152 56.3508 11.7076 56.3508 11.586C56.3508 11.4643 56.3254 11.3567 56.2754 11.2623C56.2254 11.1679 56.1557 11.0959 56.0672 11.0446C55.9786 10.9933 55.8778 10.9685 55.7663 10.9685C55.6548 10.9685 55.5548 10.9941 55.4654 11.0446C55.3769 11.0959 55.3064 11.1679 55.2548 11.2623C55.2031 11.3567 55.1777 11.4643 55.1777 11.586C55.1777 11.7076 55.2031 11.8152 55.2548 11.9096C55.3064 12.004 55.3761 12.0768 55.4654 12.129C55.554 12.1811 55.6548 12.2068 55.7663 12.2068C55.8778 12.2068 55.9786 12.1811 56.0672 12.129Z" fill="white"/>
<path d="M32.8244 14.7854C32.9678 14.8632 33.0801 14.97 33.1613 15.1074C33.2425 15.2448 33.2826 15.3988 33.2826 15.5685C33.2826 15.7382 33.2425 15.8963 33.1613 16.0328C33.0801 16.1702 32.9678 16.277 32.8244 16.3548C32.6809 16.4318 32.5202 16.4707 32.3431 16.4707C32.1898 16.4707 32.0513 16.4467 31.9275 16.3979C31.8037 16.349 31.6988 16.2787 31.6135 16.1851L31.798 15.9989C31.9382 16.1388 32.1152 16.2083 32.33 16.2083C32.5005 16.2083 32.6465 16.1595 32.767 16.061C32.8875 15.9625 32.9596 15.8333 32.9842 15.6744H32.1103V15.4385H32.9777C32.949 15.2854 32.876 15.162 32.7571 15.0685C32.6391 14.9741 32.4964 14.927 32.33 14.927C32.1177 14.927 31.9398 14.9981 31.798 15.1397L31.6135 14.9576C31.6988 14.8624 31.8045 14.7904 31.9291 14.7415C32.0538 14.6927 32.1923 14.6687 32.3431 14.6687C32.5202 14.6687 32.6809 14.7076 32.8244 14.7846V14.7854Z" fill="white"/>
<path d="M34.4066 15.7049H34.0451V16.4482H33.7295V14.6892H34.0451V15.4325H34.4132L34.9789 14.6892H35.3174L34.6567 15.5352L35.3633 16.4473H34.992L34.4066 15.704V15.7049Z" fill="white"/>
<path d="M35.9161 16.352C35.7783 16.2742 35.6701 16.1674 35.5922 16.0317C35.5144 15.8959 35.4758 15.7411 35.4758 15.569C35.4758 15.3968 35.5144 15.242 35.5922 15.1063C35.6701 14.9705 35.7783 14.8637 35.9161 14.7876C36.0546 14.7114 36.2095 14.6733 36.3825 14.6733C36.5555 14.6733 36.7104 14.7114 36.8473 14.7876C36.9843 14.8637 37.0916 14.9697 37.1695 15.1063C37.2474 15.242 37.2859 15.3968 37.2859 15.569C37.2859 15.7411 37.2474 15.8959 37.1695 16.0317C37.0916 16.1674 36.9843 16.2742 36.8473 16.352C36.7104 16.429 36.5555 16.4679 36.3825 16.4679C36.2095 16.4679 36.0538 16.429 35.9161 16.352ZM36.6834 16.1111C36.7719 16.059 36.8416 15.9861 36.8924 15.8918C36.9433 15.7974 36.9679 15.6898 36.9679 15.5681C36.9679 15.4465 36.9424 15.3388 36.8924 15.2445C36.8416 15.1501 36.7727 15.0781 36.6834 15.0268C36.5948 14.9755 36.494 14.9506 36.3825 14.9506C36.271 14.9506 36.1702 14.9763 36.0817 15.0268C35.9931 15.0781 35.9226 15.1501 35.871 15.2445C35.8193 15.3388 35.7939 15.4465 35.7939 15.5681C35.7939 15.6898 35.8193 15.7974 35.871 15.8918C35.9226 15.9861 35.9923 16.059 36.0817 16.1111C36.1702 16.1633 36.2702 16.1889 36.3825 16.1889C36.4948 16.1889 36.5948 16.1633 36.6834 16.1111Z" fill="white"/>
<path d="M37.7432 14.6892H38.0588V15.4358H39.0516V14.6892H39.3672V16.4482H39.0516V15.7115H38.0588V16.4482H37.7432V14.6892Z" fill="white"/>
<path d="M40.2601 16.352C40.1223 16.2742 40.0141 16.1674 39.9362 16.0317C39.8584 15.8959 39.8198 15.7411 39.8198 15.569C39.8198 15.3968 39.8584 15.242 39.9362 15.1063C40.0141 14.9705 40.1223 14.8637 40.2601 14.7876C40.3978 14.7114 40.5535 14.6733 40.7265 14.6733C40.8995 14.6733 41.0544 14.7114 41.1913 14.7876C41.3282 14.8637 41.4356 14.9697 41.5135 15.1063C41.5914 15.242 41.6299 15.3968 41.6299 15.569C41.6299 15.7411 41.5914 15.8959 41.5135 16.0317C41.4356 16.1674 41.3282 16.2742 41.1913 16.352C41.0544 16.429 40.8995 16.4679 40.7265 16.4679C40.5535 16.4679 40.3978 16.429 40.2601 16.352ZM41.0274 16.1111C41.1159 16.059 41.1856 15.9861 41.2356 15.8918C41.2864 15.7974 41.311 15.6898 41.311 15.5681C41.311 15.4465 41.2856 15.3388 41.2356 15.2445C41.1856 15.1501 41.1159 15.0781 41.0274 15.0268C40.9388 14.9755 40.838 14.9506 40.7265 14.9506C40.615 14.9506 40.515 14.9763 40.4257 15.0268C40.3371 15.0781 40.2666 15.1501 40.215 15.2445C40.1633 15.3388 40.1379 15.4465 40.1379 15.5681C40.1379 15.6898 40.1633 15.7974 40.215 15.8918C40.2666 15.9861 40.3363 16.059 40.4257 16.1111C40.5142 16.1633 40.615 16.1889 40.7265 16.1889C40.838 16.1889 40.9388 16.1633 41.0274 16.1111Z" fill="white"/>
<path d="M44.0957 14.6892V16.4482H43.8096V15.1635L43.1587 16.2487H43.0202L42.3758 15.1602V16.4482H42.0864V14.6892H42.4119L43.0956 15.877L43.799 14.6892H44.0949H44.0957Z" fill="white"/>
<path d="M44.7107 14.6892H45.0263V15.9697L46.0945 14.6892H46.3806V16.4482H46.065V15.1676L45.0001 16.4482H44.7107V14.6892Z" fill="white"/>
<path d="M48.3817 14.6892V16.4482H48.0661V15.738C47.8775 15.8265 47.6898 15.8704 47.5037 15.8704C47.2864 15.8704 47.1192 15.8199 47.0003 15.7181C46.8823 15.6163 46.8232 15.464 46.8232 15.2604V14.6892H47.1389V15.2405C47.1389 15.3622 47.1766 15.454 47.252 15.5161C47.3274 15.5782 47.4332 15.6088 47.5693 15.6088C47.7226 15.6088 47.8882 15.5699 48.0652 15.493V14.69H48.3809L48.3817 14.6892Z" fill="white"/>
<path d="M50.56 15.6749H49.1467C49.1664 15.8297 49.2336 15.9547 49.3492 16.0482C49.4639 16.1426 49.6074 16.1889 49.7779 16.1889C49.9861 16.1889 50.1534 16.1186 50.2805 15.977L50.4542 16.1823C50.3755 16.275 50.2772 16.3462 50.1599 16.3951C50.0427 16.4439 49.9115 16.4679 49.7673 16.4679C49.5828 16.4679 49.4197 16.4298 49.2778 16.3537C49.1352 16.2775 49.0253 16.1707 48.9475 16.0333C48.8696 15.8959 48.8311 15.7411 48.8311 15.569C48.8311 15.3968 48.8688 15.2445 48.9442 15.1079C49.0196 14.9705 49.1237 14.8637 49.2565 14.7876C49.3893 14.7114 49.5385 14.6733 49.705 14.6733C49.8714 14.6733 50.0198 14.7114 50.1501 14.7876C50.2805 14.8637 50.3821 14.9705 50.4559 15.1079C50.5289 15.2453 50.5657 15.4026 50.5657 15.5789C50.5657 15.6029 50.5633 15.6352 50.5592 15.6749H50.56ZM49.3262 15.0814C49.2246 15.1741 49.1647 15.2958 49.1475 15.4465H50.2649C50.2477 15.2983 50.1878 15.1774 50.0862 15.0831C49.9845 14.9887 49.8574 14.9415 49.7066 14.9415C49.5558 14.9415 49.4287 14.9879 49.327 15.0814H49.3262Z" fill="white"/>
<path d="M51.3404 16.352C51.201 16.2742 51.092 16.1674 51.0133 16.0317C50.9346 15.8959 50.8953 15.7411 50.8953 15.569C50.8953 15.3968 50.9346 15.242 51.0133 15.1063C51.092 14.9705 51.201 14.8637 51.3404 14.7876C51.4798 14.7114 51.638 14.6733 51.8151 14.6733C51.9725 14.6733 52.1135 14.7056 52.2373 14.7694C52.3611 14.8339 52.457 14.9266 52.525 15.0483L52.2848 15.2039C52.2299 15.1203 52.1619 15.0566 52.0807 15.0144C51.9995 14.9722 51.9102 14.9515 51.811 14.9515C51.697 14.9515 51.5946 14.9771 51.5036 15.0276C51.4126 15.0789 51.3412 15.1509 51.2896 15.2453C51.2379 15.3397 51.2125 15.4473 51.2125 15.569C51.2125 15.6906 51.2379 15.8016 51.2896 15.8959C51.3412 15.9903 51.4126 16.0623 51.5036 16.1136C51.5946 16.1649 51.697 16.1898 51.811 16.1898C51.9094 16.1898 51.9995 16.1691 52.0807 16.1269C52.1619 16.0847 52.2299 16.0217 52.2848 15.9373L52.525 16.0896C52.457 16.2113 52.3611 16.3048 52.2373 16.3702C52.1135 16.4356 51.9725 16.4679 51.8151 16.4679C51.638 16.4679 51.479 16.429 51.3404 16.352Z" fill="white"/>
<path d="M53.6103 15.7049H53.2487V16.4482H52.9331V14.6892H53.2487V15.4325H53.6168L54.1825 14.6892H54.521L53.8603 15.5352L54.567 16.4473H54.1956L53.6111 15.704L53.6103 15.7049Z" fill="white"/>
<path d="M55.1187 16.352C54.981 16.2742 54.8728 16.1674 54.7949 16.0317C54.717 15.8959 54.6785 15.7411 54.6785 15.569C54.6785 15.3968 54.717 15.242 54.7949 15.1063C54.8728 14.9705 54.981 14.8637 55.1187 14.7876C55.2572 14.7114 55.4122 14.6733 55.5852 14.6733C55.7581 14.6733 55.9131 14.7114 56.05 14.7876C56.1869 14.8637 56.2943 14.9697 56.3722 15.1063C56.45 15.242 56.4886 15.3968 56.4886 15.569C56.4886 15.7411 56.45 15.8959 56.3722 16.0317C56.2943 16.1674 56.1869 16.2742 56.05 16.352C55.9131 16.429 55.7581 16.4679 55.5852 16.4679C55.4122 16.4679 55.2564 16.429 55.1187 16.352ZM55.886 16.1111C55.9746 16.059 56.0442 15.9861 56.0951 15.8918C56.1459 15.7974 56.1705 15.6898 56.1705 15.5681C56.1705 15.4465 56.1451 15.3388 56.0951 15.2445C56.0442 15.1501 55.9754 15.0781 55.886 15.0268C55.7975 14.9755 55.6967 14.9506 55.5852 14.9506C55.4737 14.9506 55.3728 14.9763 55.2843 15.0268C55.1958 15.0781 55.1253 15.1501 55.0736 15.2445C55.022 15.3388 54.9965 15.4465 54.9965 15.5681C54.9965 15.6898 55.022 15.7974 55.0736 15.8918C55.1253 15.9861 55.1949 16.059 55.2843 16.1111C55.3728 16.1633 55.4728 16.1889 55.5852 16.1889C55.6975 16.1889 55.7975 16.1633 55.886 16.1111Z" fill="white"/>
<path d="M58.2275 14.9682H57.2609V16.4482H56.9453V14.6892H58.2275V14.9682Z" fill="white"/>
<path d="M58.7537 16.352C58.616 16.2742 58.5078 16.1674 58.4299 16.0317C58.352 15.8959 58.3135 15.7411 58.3135 15.569C58.3135 15.3968 58.352 15.242 58.4299 15.1063C58.5078 14.9705 58.616 14.8637 58.7537 14.7876C58.8914 14.7114 59.0472 14.6733 59.2202 14.6733C59.3932 14.6733 59.5481 14.7114 59.685 14.7876C59.8219 14.8637 59.9293 14.9697 60.0072 15.1063C60.0851 15.242 60.1236 15.3968 60.1236 15.569C60.1236 15.7411 60.0851 15.8959 60.0072 16.0317C59.9293 16.1674 59.8219 16.2742 59.685 16.352C59.5481 16.429 59.3932 16.4679 59.2202 16.4679C59.0472 16.4679 58.8914 16.429 58.7537 16.352ZM59.521 16.1111C59.6096 16.059 59.6793 15.9861 59.7293 15.8918C59.7801 15.7974 59.8047 15.6898 59.8047 15.5681C59.8047 15.4465 59.7793 15.3388 59.7293 15.2445C59.6793 15.1501 59.6096 15.0781 59.521 15.0268C59.4325 14.9755 59.3317 14.9506 59.2202 14.9506C59.1087 14.9506 59.0087 14.9763 58.9193 15.0268C58.8308 15.0781 58.7603 15.1501 58.7086 15.2445C58.657 15.3388 58.6316 15.4465 58.6316 15.5681C58.6316 15.6898 58.657 15.7974 58.7086 15.8918C58.7603 15.9861 58.8299 16.059 58.9193 16.1111C59.0078 16.1633 59.1087 16.1889 59.2202 16.1889C59.3317 16.1889 59.4325 16.1633 59.521 16.1111Z" fill="white"/>
<path d="M62.8421 14.7853C62.9757 14.8606 63.0807 14.9657 63.1561 15.1006C63.2315 15.2356 63.2692 15.392 63.2692 15.5683C63.2692 15.7446 63.2315 15.9019 63.1561 16.0377C63.0807 16.1734 62.9757 16.2794 62.8421 16.3547C62.7085 16.43 62.5576 16.4673 62.3888 16.4673C62.2641 16.4673 62.1494 16.4433 62.0453 16.3944C61.9411 16.3456 61.8526 16.2752 61.7805 16.1817V17.0906H61.4648V14.6884H61.7673V14.9674C61.8379 14.8697 61.9264 14.7969 62.0338 14.7464C62.1412 14.6967 62.2592 14.6719 62.3888 14.6719C62.5576 14.6719 62.7085 14.7091 62.8421 14.7844V14.7853ZM62.6634 16.1113C62.7519 16.0592 62.8224 15.9863 62.8741 15.892C62.9257 15.7976 62.9511 15.69 62.9511 15.5683C62.9511 15.4466 62.9257 15.339 62.8741 15.2447C62.8224 15.1503 62.7527 15.0783 62.6634 15.027C62.5749 14.9757 62.474 14.9508 62.3625 14.9508C62.251 14.9508 62.1535 14.9765 62.0649 15.0286C61.9764 15.0808 61.9059 15.1528 61.8542 15.2463C61.8026 15.339 61.7772 15.4466 61.7772 15.5683C61.7772 15.69 61.8026 15.7976 61.8526 15.892C61.9026 15.9863 61.9731 16.0592 62.0633 16.1113C62.1527 16.1635 62.2527 16.1891 62.3625 16.1891C62.4724 16.1891 62.5749 16.1635 62.6634 16.1113Z" fill="white"/>
<path d="M64.8851 14.8521C65.013 14.9713 65.0777 15.1493 65.0777 15.386V16.448H64.7785V16.2154C64.726 16.2974 64.6506 16.3595 64.5531 16.4033C64.4555 16.4464 64.3399 16.4679 64.2063 16.4679C64.0112 16.4679 63.8554 16.4199 63.7382 16.3255C63.621 16.2303 63.5627 16.1053 63.5627 15.9506C63.5627 15.7958 63.6185 15.6716 63.73 15.5772C63.8415 15.4829 64.0194 15.4365 64.262 15.4365H64.7621V15.3736C64.7621 15.2362 64.7228 15.1311 64.6441 15.0582C64.5654 14.9854 64.4489 14.949 64.2956 14.949C64.1923 14.949 64.0915 14.9664 63.9931 15.0003C63.8948 15.0342 63.8111 15.0806 63.7431 15.1377L63.6119 14.8985C63.7013 14.8256 63.8095 14.7694 63.9341 14.7313C64.0587 14.6924 64.1915 14.6733 64.3317 14.6733C64.5727 14.6733 64.7572 14.7329 64.8859 14.8521H64.8851ZM64.5711 16.1418C64.6588 16.0871 64.7219 16.011 64.7621 15.9108V15.665H64.276C64.0087 15.665 63.8751 15.756 63.8751 15.9373C63.8751 16.0259 63.9087 16.0954 63.9767 16.1467C64.0448 16.1981 64.1391 16.2229 64.2596 16.2229C64.3801 16.2229 64.4842 16.1956 64.5719 16.1418H64.5711Z" fill="white"/>
<path d="M66.8288 15.6818C66.8927 15.7505 66.9239 15.8358 66.9239 15.9376C66.9239 16.0394 66.8886 16.1338 66.8189 16.2149C66.7484 16.296 66.6517 16.3589 66.5279 16.4044C66.4041 16.45 66.2656 16.4723 66.1123 16.4723C65.9828 16.4723 65.8565 16.4549 65.7327 16.421C65.6089 16.3871 65.4991 16.3374 65.4023 16.2737L65.4974 16.0311C65.5802 16.0841 65.6762 16.1255 65.7836 16.1553C65.8909 16.1851 65.9992 16.2 66.109 16.2C66.2582 16.2 66.3771 16.1743 66.4656 16.1222C66.5542 16.07 66.5984 15.9997 66.5984 15.9111C66.5984 15.8292 66.5624 15.7662 66.4919 15.7215C66.4205 15.6777 66.3205 15.6553 66.191 15.6553H65.8721V15.4269H66.168C66.2861 15.4269 66.3795 15.4062 66.4476 15.364C66.5156 15.3217 66.5492 15.2646 66.5492 15.1918C66.5492 15.1123 66.5091 15.0502 66.4295 15.0055C66.35 14.9617 66.2418 14.9393 66.1057 14.9393C65.9328 14.9393 65.7499 14.9848 65.5565 15.0751L65.4712 14.8292C65.6835 14.7208 65.9057 14.667 66.1385 14.667C66.2787 14.667 66.405 14.6869 66.5164 14.7266C66.6279 14.7663 66.7157 14.8226 66.7796 14.8955C66.8427 14.9683 66.8747 15.0511 66.8747 15.1446C66.8747 15.2307 66.846 15.3085 66.7894 15.3772C66.7329 15.4459 66.6558 15.4981 66.5591 15.5328C66.6755 15.5634 66.7648 15.6139 66.8288 15.6818Z" fill="white"/>
<path d="M68.929 15.9639C68.929 16.1187 68.8716 16.2379 68.7569 16.3224C68.6421 16.406 68.4699 16.4482 68.2429 16.4482H67.405V14.6892H68.2133C68.4191 14.6892 68.5806 14.7281 68.6962 14.8068C68.8126 14.8854 68.87 14.9963 68.87 15.1403C68.87 15.233 68.8454 15.3133 68.7962 15.3812C68.747 15.4491 68.6782 15.5004 68.5905 15.5352C68.8159 15.5931 68.929 15.7355 68.929 15.9631V15.9639ZM67.7133 15.4466H68.1863C68.3068 15.4466 68.3986 15.4243 68.4609 15.3804C68.5232 15.3365 68.5544 15.2719 68.5544 15.1875C68.5544 15.0195 68.4314 14.9351 68.1863 14.9351H67.7133V15.4466ZM68.515 16.1403C68.5806 16.098 68.6134 16.0326 68.6134 15.9441C68.6134 15.8555 68.5831 15.786 68.5232 15.7413C68.4634 15.6966 68.3683 15.6751 68.2388 15.6751H67.7133V16.2023H68.2191C68.3503 16.2023 68.4494 16.1816 68.515 16.1394V16.1403Z" fill="white"/>
<path d="M69.4216 14.6892H69.7373V15.9697L70.8054 14.6892H71.0916V16.4482H70.7759V15.1676L69.711 16.4482H69.4216V14.6892Z" fill="white"/>
<path d="M73.0011 14.9682H72.3633V16.4482H72.0477V14.9682H71.4099V14.6892H73.0003V14.9682H73.0011Z" fill="white"/>
<path d="M73.3223 14.6892H73.6379V15.9697L74.7061 14.6892H74.9922V16.4482H74.6766V15.1676L73.6117 16.4482H73.3223V14.6892Z" fill="white"/>
<path d="M76.9998 14.6892V16.4482H76.717V15.8903H76.1751L75.7939 16.4482H75.4553L75.8792 15.8472C75.748 15.8075 75.6472 15.7413 75.5767 15.6494C75.5061 15.5575 75.4717 15.4433 75.4717 15.3059C75.4717 15.1047 75.5398 14.9516 75.6758 14.8465C75.8119 14.7414 75.9988 14.6892 76.2374 14.6892H76.9998ZM75.9037 15.5766C75.9775 15.6328 76.0874 15.661 76.2341 15.661H76.717V14.9673H76.2472C75.9447 14.9673 75.7939 15.0832 75.7939 15.3158C75.7939 15.4334 75.8308 15.5203 75.9037 15.5766Z" fill="white"/>
<path d="M33.4934 18.3231C33.6639 18.4672 33.75 18.665 33.75 18.9166C33.75 19.1683 33.6647 19.3669 33.4934 19.5109C33.3229 19.655 33.0884 19.727 32.79 19.727H32.2211V20.4306H31.8923V18.1079H32.7892C33.0868 18.1079 33.3212 18.1799 33.4926 18.324L33.4934 18.3231ZM33.2565 19.304C33.3663 19.2146 33.4204 19.0855 33.4204 18.9174C33.4204 18.7494 33.3655 18.6203 33.2565 18.5309C33.1466 18.4415 32.9884 18.3968 32.7802 18.3968H32.2211V19.4389H32.7802C32.9884 19.4389 33.1474 19.3942 33.2565 19.3048V19.304Z" fill="white"/>
<path d="M34.427 20.3337C34.2893 20.2559 34.1811 20.1491 34.1032 20.0134C34.0253 19.8776 33.9868 19.7228 33.9868 19.5507C33.9868 19.3785 34.0253 19.2237 34.1032 19.0879C34.1811 18.9522 34.2893 18.8454 34.427 18.7693C34.5648 18.6931 34.7205 18.655 34.8935 18.655C35.0665 18.655 35.2214 18.6931 35.3583 18.7693C35.4952 18.8454 35.6026 18.9514 35.6805 19.0879C35.7584 19.2237 35.7969 19.3785 35.7969 19.5507C35.7969 19.7228 35.7584 19.8776 35.6805 20.0134C35.6026 20.1491 35.4952 20.2559 35.3583 20.3337C35.2214 20.4107 35.0665 20.4496 34.8935 20.4496C34.7205 20.4496 34.5648 20.4107 34.427 20.3337ZM35.1944 20.0928C35.2829 20.0407 35.3526 19.9678 35.4026 19.8735C35.4534 19.7791 35.478 19.6715 35.478 19.5498C35.478 19.4281 35.4526 19.3205 35.4026 19.2262C35.3526 19.1318 35.2829 19.0598 35.1944 19.0085C35.1058 18.9572 35.005 18.9323 34.8935 18.9323C34.782 18.9323 34.682 18.958 34.5926 19.0085C34.5041 19.0598 34.4336 19.1318 34.382 19.2262C34.3303 19.3205 34.3049 19.4281 34.3049 19.5498C34.3049 19.6715 34.3303 19.7791 34.382 19.8735C34.4336 19.9678 34.5033 20.0407 34.5926 20.0928C34.6812 20.145 34.782 20.1706 34.8935 20.1706C35.005 20.1706 35.1058 20.145 35.1944 20.0928Z" fill="white"/>
<path d="M36.5382 20.3337C36.3988 20.2559 36.2898 20.1491 36.2111 20.0134C36.1324 19.8776 36.093 19.7228 36.093 19.5507C36.093 19.3785 36.1324 19.2237 36.2111 19.0879C36.2898 18.9522 36.3988 18.8454 36.5382 18.7693C36.6775 18.6931 36.8358 18.655 37.0128 18.655C37.1702 18.655 37.3112 18.6873 37.435 18.751C37.5588 18.8156 37.6547 18.9083 37.7228 19.03L37.4826 19.1856C37.4276 19.102 37.3596 19.0383 37.2784 18.9961C37.1973 18.9538 37.1079 18.9332 37.0087 18.9332C36.8948 18.9332 36.7923 18.9588 36.7013 19.0093C36.6103 19.0606 36.539 19.1326 36.4873 19.227C36.4357 19.3214 36.4103 19.429 36.4103 19.5507C36.4103 19.6723 36.4357 19.7833 36.4873 19.8776C36.539 19.972 36.6103 20.044 36.7013 20.0953C36.7923 20.1466 36.8948 20.1715 37.0087 20.1715C37.1071 20.1715 37.1973 20.1508 37.2784 20.1086C37.3596 20.0663 37.4276 20.0034 37.4826 19.919L37.7228 20.0713C37.6547 20.193 37.5588 20.2865 37.435 20.3519C37.3112 20.4173 37.1702 20.4496 37.0128 20.4496C36.8358 20.4496 36.6767 20.4107 36.5382 20.3337Z" fill="white"/>
<path d="M38.3885 20.3337C38.2491 20.2559 38.1401 20.1491 38.0614 20.0134C37.9827 19.8776 37.9434 19.7228 37.9434 19.5507C37.9434 19.3785 37.9827 19.2237 38.0614 19.0879C38.1401 18.9522 38.2491 18.8454 38.3885 18.7693C38.5279 18.6931 38.6861 18.655 38.8632 18.655C39.0206 18.655 39.1616 18.6873 39.2854 18.751C39.4092 18.8156 39.5051 18.9083 39.5731 19.03L39.3329 19.1856C39.278 19.102 39.2099 19.0383 39.1288 18.9961C39.0476 18.9538 38.9583 18.9332 38.8591 18.9332C38.7451 18.9332 38.6426 18.9588 38.5516 19.0093C38.4607 19.0606 38.3893 19.1326 38.3377 19.227C38.286 19.3214 38.2606 19.429 38.2606 19.5507C38.2606 19.6723 38.286 19.7833 38.3377 19.8776C38.3893 19.972 38.4607 20.044 38.5516 20.0953C38.6426 20.1466 38.7451 20.1715 38.8591 20.1715C38.9574 20.1715 39.0476 20.1508 39.1288 20.1086C39.2099 20.0663 39.278 20.0034 39.3329 19.919L39.5731 20.0713C39.5051 20.193 39.4092 20.2865 39.2854 20.3519C39.1616 20.4173 39.0206 20.4496 38.8632 20.4496C38.6861 20.4496 38.5271 20.4107 38.3885 20.3337Z" fill="white"/>
<path d="M39.9814 18.6716H40.2971V19.9522L41.3653 18.6716H41.6514V20.4306H41.3357V19.1501L40.2708 20.4306H39.9814V18.6716Z" fill="white"/>
<path d="M42.262 18.6716H42.5776V19.9522L43.6458 18.6716H43.9319V20.4306H43.6163V19.1501L42.5514 20.4306H42.262V18.6716ZM42.6989 18.3248C42.6087 18.2462 42.5628 18.1328 42.5612 17.9846H42.7752C42.7776 18.0666 42.8055 18.132 42.8588 18.1816C42.9129 18.2313 42.9842 18.2561 43.0744 18.2561C43.1646 18.2561 43.2367 18.2313 43.2916 18.1816C43.3466 18.132 43.3744 18.0657 43.3769 17.9846H43.5974C43.595 18.1328 43.5482 18.2462 43.4564 18.3248C43.3646 18.4035 43.2383 18.4424 43.0785 18.4424C42.9186 18.4424 42.7899 18.4035 42.7006 18.3248H42.6989Z" fill="white"/>
<path d="M44.8272 20.3337C44.6879 20.2559 44.5788 20.1491 44.5001 20.0134C44.4214 19.8776 44.3821 19.7228 44.3821 19.5507C44.3821 19.3785 44.4214 19.2237 44.5001 19.0879C44.5788 18.9522 44.6879 18.8454 44.8272 18.7693C44.9666 18.6931 45.1248 18.655 45.3019 18.655C45.4593 18.655 45.6003 18.6873 45.7241 18.751C45.8479 18.8156 45.9438 18.9083 46.0118 19.03L45.7716 19.1856C45.7167 19.102 45.6487 19.0383 45.5675 18.9961C45.4863 18.9538 45.397 18.9332 45.2978 18.9332C45.1838 18.9332 45.0814 18.9588 44.9904 19.0093C44.8994 19.0606 44.828 19.1326 44.7764 19.227C44.7248 19.3214 44.6993 19.429 44.6993 19.5507C44.6993 19.6723 44.7248 19.7833 44.7764 19.8776C44.828 19.972 44.8994 20.044 44.9904 20.0953C45.0814 20.1466 45.1838 20.1715 45.2978 20.1715C45.3962 20.1715 45.4863 20.1508 45.5675 20.1086C45.6487 20.0663 45.7167 20.0034 45.7716 19.919L46.0118 20.0713C45.9438 20.193 45.8479 20.2865 45.7241 20.3519C45.6003 20.4173 45.4593 20.4496 45.3019 20.4496C45.1248 20.4496 44.9658 20.4107 44.8272 20.3337Z" fill="white"/>
<path d="M47.0963 19.6873H46.7348V20.4306H46.4192V18.6716H46.7348V19.415H47.1029L47.6686 18.6716H48.0071L47.3464 19.5176L48.053 20.4298H47.6817L47.0972 19.6865L47.0963 19.6873Z" fill="white"/>
<path d="M48.6048 20.3337C48.4671 20.2559 48.3588 20.1491 48.281 20.0134C48.2031 19.8776 48.1646 19.7228 48.1646 19.5507C48.1646 19.3785 48.2031 19.2237 48.281 19.0879C48.3588 18.9522 48.4671 18.8454 48.6048 18.7693C48.7433 18.6931 48.8983 18.655 49.0712 18.655C49.2442 18.655 49.3992 18.6931 49.5361 18.7693C49.673 18.8454 49.7804 18.9514 49.8583 19.0879C49.9361 19.2237 49.9747 19.3785 49.9747 19.5507C49.9747 19.7228 49.9361 19.8776 49.8583 20.0134C49.7804 20.1491 49.673 20.2559 49.5361 20.3337C49.3992 20.4107 49.2442 20.4496 49.0712 20.4496C48.8983 20.4496 48.7425 20.4107 48.6048 20.3337ZM49.3721 20.0928C49.4607 20.0407 49.5303 19.9678 49.5812 19.8735C49.632 19.7791 49.6566 19.6715 49.6566 19.5498C49.6566 19.4281 49.6312 19.3205 49.5812 19.2262C49.5303 19.1318 49.4615 19.0598 49.3721 19.0085C49.2836 18.9572 49.1827 18.9323 49.0712 18.9323C48.9598 18.9323 48.8589 18.958 48.7704 19.0085C48.6818 19.0598 48.6113 19.1318 48.5597 19.2262C48.508 19.3205 48.4826 19.4281 48.4826 19.5498C48.4826 19.6715 48.508 19.7791 48.5597 19.8735C48.6113 19.9678 48.681 20.0407 48.7704 20.0928C48.8589 20.145 48.9589 20.1706 49.0712 20.1706C49.1836 20.1706 49.2836 20.145 49.3721 20.0928Z" fill="white"/>
<path d="M50.4321 18.6716H50.7477V19.9522L51.8159 18.6716H52.1021V20.4306H51.7864V19.1501L50.7215 20.4306H50.4321V18.6716ZM50.8691 18.3248C50.7789 18.2462 50.733 18.1328 50.7305 17.9846H50.9445C50.947 18.0666 50.9748 18.132 51.0281 18.1816C51.0814 18.2313 51.1535 18.2561 51.2429 18.2561C51.3323 18.2561 51.4052 18.2313 51.4602 18.1816C51.5151 18.132 51.5438 18.0657 51.5454 17.9846H51.7659C51.7635 18.1328 51.7167 18.2462 51.6241 18.3248C51.5323 18.4035 51.406 18.4424 51.2462 18.4424C51.0863 18.4424 50.9584 18.4035 50.8683 18.3248H50.8691Z" fill="white"/>
<path d="M55.8682 19.9884C55.6558 20.1631 55.3558 20.2574 54.968 20.2707V20.5165H54.6623V20.2707C54.2745 20.2549 53.9736 20.1598 53.7605 19.9851C53.5465 19.8104 53.4399 19.5704 53.4399 19.265C53.4399 18.9595 53.5465 18.7162 53.7605 18.5415C53.9744 18.3668 54.2745 18.2717 54.6623 18.2559V18.02H54.968V18.2559C55.3533 18.2717 55.6534 18.3668 55.8665 18.5432C56.0805 18.7195 56.1871 18.9595 56.1871 19.265C56.1871 19.5704 56.0805 19.8138 55.8682 19.9884ZM53.9933 19.7947C54.1499 19.9222 54.3729 19.9942 54.6623 20.0116V18.5183C54.3688 18.5357 54.145 18.6077 53.99 18.7335C53.8359 18.8594 53.758 19.0365 53.758 19.2641C53.758 19.4918 53.8367 19.6664 53.9933 19.7939V19.7947ZM55.6403 19.7947C55.7944 19.6672 55.8723 19.4901 55.8723 19.2616C55.8723 19.0332 55.7936 18.8627 55.637 18.736C55.4804 18.6085 55.2574 18.5365 54.968 18.5192V20.0124C55.2615 19.995 55.4853 19.9222 55.6403 19.7955V19.7947Z" fill="white"/>
<path d="M58.208 19.6566H56.7946C56.8143 19.8114 56.8815 19.9364 56.9971 20.0299C57.1119 20.1243 57.2553 20.1706 57.4259 20.1706C57.6341 20.1706 57.8013 20.1003 57.9284 19.9587L58.1022 20.164C58.0235 20.2567 57.9251 20.3279 57.8079 20.3767C57.6907 20.4256 57.5595 20.4496 57.4152 20.4496C57.2308 20.4496 57.0676 20.4115 56.9258 20.3354C56.7831 20.2592 56.6733 20.1524 56.5954 20.015C56.5175 19.8776 56.479 19.7228 56.479 19.5507C56.479 19.3785 56.5167 19.2262 56.5921 19.0896C56.6676 18.9522 56.7717 18.8454 56.9045 18.7693C57.0373 18.6931 57.1865 18.655 57.3529 18.655C57.5193 18.655 57.6677 18.6931 57.7981 18.7693C57.9284 18.8454 58.0301 18.9522 58.1038 19.0896C58.1776 19.227 58.2137 19.3843 58.2137 19.5606C58.2137 19.5846 58.2112 19.6169 58.2071 19.6566H58.208ZM56.9742 19.0631C56.8725 19.1558 56.8127 19.2775 56.7954 19.4281H57.9128C57.8956 19.28 57.8358 19.1591 57.7341 19.0648C57.6325 18.9704 57.5054 18.9232 57.3545 18.9232C57.2037 18.9232 57.0766 18.9696 56.975 19.0631H56.9742Z" fill="white"/>
<path d="M60.4466 20.1516V20.8387H60.1507V20.4306H58.6947V20.8387H58.3955V20.1516H58.4873C58.5988 20.145 58.6759 20.0656 58.7177 19.9124C58.7595 19.7593 58.7882 19.5441 58.8029 19.2651L58.8292 18.6716H60.1802V20.1516H60.4466ZM59.0382 19.8379C59.0112 19.9828 58.9612 20.0871 58.889 20.1516H59.8654V18.9506H59.1096L59.0932 19.2891C59.0841 19.5101 59.0661 19.6931 59.0391 19.8379H59.0382Z" fill="white"/>
<path d="M62.425 19.6566H61.0117C61.0313 19.8114 61.0986 19.9364 61.2142 20.0299C61.3289 20.1243 61.4724 20.1706 61.6429 20.1706C61.8511 20.1706 62.0184 20.1003 62.1454 19.9587L62.3192 20.164C62.2405 20.2567 62.1422 20.3279 62.0249 20.3767C61.9077 20.4256 61.7765 20.4496 61.6323 20.4496C61.4478 20.4496 61.2847 20.4115 61.1428 20.3354C61.0002 20.2592 60.8903 20.1524 60.8125 20.015C60.7346 19.8776 60.696 19.7228 60.696 19.5507C60.696 19.3785 60.7338 19.2262 60.8092 19.0896C60.8846 18.9522 60.9887 18.8454 61.1215 18.7693C61.2543 18.6931 61.4035 18.655 61.5699 18.655C61.7364 18.655 61.8847 18.6931 62.0151 18.7693C62.1454 18.8454 62.2471 18.9522 62.3209 19.0896C62.3947 19.227 62.4307 19.3843 62.4307 19.5606C62.4307 19.5846 62.4283 19.6169 62.4242 19.6566H62.425ZM61.1912 19.0631C61.0895 19.1558 61.0297 19.2775 61.0125 19.4281H62.1299C62.1127 19.28 62.0528 19.1591 61.9512 19.0648C61.8495 18.9704 61.7224 18.9232 61.5716 18.9232C61.4207 18.9232 61.2937 18.9696 61.192 19.0631H61.1912Z" fill="white"/>
<path d="M64.2979 18.7677C64.4315 18.843 64.5365 18.9481 64.6119 19.0831C64.6873 19.218 64.725 19.3744 64.725 19.5507C64.725 19.7271 64.6873 19.8843 64.6119 20.0201C64.5365 20.1558 64.4315 20.2618 64.2979 20.3371C64.1643 20.4124 64.0134 20.4497 63.8446 20.4497C63.72 20.4497 63.6052 20.4257 63.5011 20.3768C63.397 20.328 63.3084 20.2576 63.2363 20.1641V21.073H62.9207V18.6709H63.2232V18.9498C63.2937 18.8521 63.3822 18.7793 63.4896 18.7288C63.597 18.6791 63.715 18.6543 63.8446 18.6543C64.0134 18.6543 64.1643 18.6915 64.2979 18.7669V18.7677ZM64.1192 20.0938C64.2077 20.0416 64.2782 19.9688 64.3299 19.8744C64.3815 19.78 64.4069 19.6724 64.4069 19.5507C64.4069 19.4291 64.3815 19.3215 64.3299 19.2271C64.2782 19.1327 64.2086 19.0607 64.1192 19.0094C64.0307 18.9581 63.9298 18.9332 63.8183 18.9332C63.7068 18.9332 63.6093 18.9589 63.5207 19.0111C63.4322 19.0632 63.3617 19.1352 63.3101 19.2288C63.2584 19.3215 63.233 19.4291 63.233 19.5507C63.233 19.6724 63.2584 19.78 63.3084 19.8744C63.3584 19.9688 63.4289 20.0416 63.5191 20.0938C63.6085 20.1459 63.7085 20.1716 63.8183 20.1716C63.9282 20.1716 64.0307 20.1459 64.1192 20.0938Z" fill="white"/>
<path d="M66.3409 18.8338C66.4688 18.953 66.5335 19.131 66.5335 19.3677V20.4297H66.2343V20.1971C66.1818 20.2791 66.1064 20.3412 66.0089 20.385C65.9113 20.4281 65.7957 20.4496 65.6621 20.4496C65.467 20.4496 65.3112 20.4016 65.194 20.3072C65.0768 20.212 65.0186 20.087 65.0186 19.9322C65.0186 19.7775 65.0743 19.6533 65.1858 19.5589C65.2973 19.4646 65.4752 19.4182 65.7178 19.4182H66.2179V19.3553C66.2179 19.2179 66.1786 19.1128 66.0999 19.0399C66.0212 18.9671 65.9048 18.9307 65.7515 18.9307C65.6482 18.9307 65.5473 18.9481 65.4489 18.982C65.3506 19.0159 65.267 19.0623 65.1989 19.1194L65.0677 18.8802C65.1571 18.8073 65.2653 18.751 65.3899 18.713C65.5145 18.6741 65.6473 18.655 65.7875 18.655C66.0285 18.655 66.213 18.7146 66.3417 18.8338H66.3409ZM66.0269 20.1235C66.1146 20.0688 66.1777 19.9927 66.2179 19.8925V19.6467H65.7318C65.4645 19.6467 65.3309 19.7377 65.3309 19.919C65.3309 20.0076 65.3645 20.0771 65.4326 20.1284C65.5006 20.1797 65.5949 20.2046 65.7154 20.2046C65.8359 20.2046 65.94 20.1773 66.0277 20.1235H66.0269Z" fill="white"/>
<path d="M68.9619 20.1516V20.8519H68.6627V20.4306H67.1018V18.6716H67.4174V20.1516H68.3709V18.6716H68.6865V20.1516H68.9627H68.9619Z" fill="white"/>
<path d="M69.3691 18.6716H69.6848V19.9522L70.753 18.6716H71.0391V20.4306H70.7234V19.1501L69.6585 20.4306H69.3691V18.6716Z" fill="white"/>
<path d="M71.6499 18.6716H71.9655V19.9522L73.0337 18.6716H73.3198V20.4306H73.0042V19.1501L71.9393 20.4306H71.6499V18.6716Z" fill="white"/>
</g>
<defs>
<clipPath id="clip0_3_534">
<rect width="76.623" height="27.3654" fill="white" transform="translate(0.376953 0.883301)"/>
</clipPath>
</defs>
</svg>
