<svg width="244" height="245" viewBox="0 0 244 245" fill="none" xmlns="http://www.w3.org/2000/svg">
<path d="M29.0555 56.1111H2.5V135.778H29.0555M29.0555 56.1111V29.5555H55.6111M29.0555 56.1111V135.778M29.0555 56.1111H55.6111V29.5555M55.6111 29.5555V3H135.278V29.5555M55.6111 29.5555H135.278M135.278 29.5555H161.833V56.1111M135.278 29.5555V56.1111H161.833M161.833 56.1111H188.389V135.778H161.833M161.833 56.1111V135.778M161.833 135.778V162.333M161.833 135.778H135.278V162.333M161.833 162.333H188.389V188.889M161.833 162.333V188.889H188.389M161.833 162.333H135.278M188.389 188.889H214.944V215.444M188.389 188.889V215.444H214.944M214.944 215.444H241.5V242H214.944V215.444ZM135.278 162.333V188.889H55.6111V162.333M135.278 162.333H55.6111M55.6111 162.333H29.0555V135.778M55.6111 162.333V135.778H29.0555" stroke="#222222" stroke-width="5"/>
<path d="M161.834 59.4797V133.201" stroke="#222222" stroke-width="5"/>
<path d="M28.6602 57.6968L29.2547 133.796" stroke="#222222" stroke-width="5"/>
<path d="M58.3848 162.333L132.106 162.333" stroke="#222222" stroke-width="5"/>
<path d="M58.3848 29.7542H132.701" stroke="#222222" stroke-width="5"/>
</svg>
